<svg width="21" height="19" viewBox="0 0 21 19" fill="none" xmlns="http://www.w3.org/2000/svg">
<path d="M0.857666 5.64068V4.95318C0.857666 4.38362 1.27739 3.92193 1.79517 3.92193H15.8577V1.85943C15.8577 0.941314 16.8693 0.482622 17.4581 1.1302L20.5831 4.5677C20.9492 4.97045 20.9492 5.6234 20.5831 6.02611L17.4581 9.4636C16.8716 10.1087 15.8577 9.65636 15.8577 8.73442V6.67193H1.79517C1.27739 6.67193 0.857666 6.21023 0.857666 5.64068ZM19.9202 12.1719H5.85767V10.1094C5.85767 9.19359 4.84743 8.73099 4.25724 9.3802L1.13224 12.8177C0.766143 13.2204 0.766143 13.8734 1.13224 14.2761L4.25724 17.7136C4.84427 18.3593 5.85767 17.9055 5.85767 16.9844V14.9219H19.9202C20.4379 14.9219 20.8577 14.4602 20.8577 13.8907V13.2032C20.8577 12.6336 20.4379 12.1719 19.9202 12.1719Z" fill="#0050E2"/>
</svg>
